# Blender v2.83.4 OBJ File: 'Monster.blend'
# www.blender.org
mtllib Rods.mtl
o Text
v 0.093100 0.350000 0.100000
v -0.044100 -0.350000 0.100000
v -0.093100 -0.350000 0.100000
v 0.044100 0.350000 0.100000
v 0.093100 0.350000 -0.100000
v -0.044100 -0.350000 -0.100000
v -0.093100 -0.350000 -0.100000
v 0.044100 0.350000 -0.100000
v 0.093100 0.350000 -0.100000
v 0.093100 0.350000 0.100000
v -0.044100 -0.350000 -0.100000
v -0.044100 -0.350000 0.100000
v -0.093100 -0.350000 -0.100000
v -0.093100 -0.350000 0.100000
v 0.044100 0.350000 -0.100000
v 0.044100 0.350000 0.100000
vt 0.666667 0.000000
vt 0.000000 0.000000
vt 1.000000 0.000000
vt 0.333333 0.000000
vt 0.000000 0.000000
vt 0.666667 0.000000
vt 1.000000 0.000000
vt 0.333333 0.000000
vt 0.250000 1.000000
vt 0.000000 0.000000
vt 0.000000 1.000000
vt 0.500000 1.000000
vt 0.250000 0.000000
vt 0.750000 1.000000
vt 0.500000 0.000000
vt 1.000000 1.000000
vt 0.750000 0.000000
vt 1.000000 0.000000
vn 0.0000 -0.0000 1.0000
vn 0.0000 0.0000 -1.0000
vn 0.6355 -0.7721 0.0000
vn 0.7721 0.6355 0.0000
vn -0.7721 -0.6355 0.0000
vn -0.6355 0.7721 0.0000
usemtl None
s off
f 3/1/1 1/2/1 4/3/1
f 3/1/1 2/4/1 1/2/1
f 5/5/2 7/6/2 8/7/2
f 6/8/2 7/6/2 5/5/2
s 1
f 12/9/3 9/10/4 10/11/4
f 14/12/5 11/13/3 12/9/3
f 16/14/6 13/15/5 14/12/5
f 10/16/4 15/17/6 16/14/6
f 12/9/3 11/13/3 9/10/4
f 14/12/5 13/15/5 11/13/3
f 16/14/6 15/17/6 13/15/5
f 10/16/4 9/18/4 15/17/6
