# Blender v2.83.2 OBJ File: 'Monster.blend'
# www.blender.org
mtllib Y.mtl
o Text
v 0.211400 0.341000 0.100000
v 0.034300 0.019000 0.100000
v 0.034300 -0.341000 0.100000
v -0.034300 -0.341000 0.100000
v -0.034300 0.020000 0.100000
v -0.211400 0.341000 0.100000
v -0.128800 0.341000 0.100000
v -0.000700 0.106000 0.100000
v 0.128800 0.341000 0.100000
v 0.211400 0.341000 -0.100000
v 0.034300 0.019000 -0.100000
v 0.034300 -0.341000 -0.100000
v -0.034300 -0.341000 -0.100000
v -0.034300 0.020000 -0.100000
v -0.211400 0.341000 -0.100000
v -0.128800 0.341000 -0.100000
v -0.000700 0.106000 -0.100000
v 0.128800 0.341000 -0.100000
v 0.211400 0.341000 -0.100000
v 0.211400 0.341000 0.100000
v 0.034300 0.019000 -0.100000
v 0.034300 0.019000 0.100000
v 0.034300 -0.341000 -0.100000
v 0.034300 -0.341000 0.100000
v -0.034300 -0.341000 -0.100000
v -0.034300 -0.341000 0.100000
v -0.034300 0.020000 -0.100000
v -0.034300 0.020000 0.100000
v -0.211400 0.341000 -0.100000
v -0.211400 0.341000 0.100000
v -0.128800 0.341000 -0.100000
v -0.128800 0.341000 0.100000
v -0.000700 0.106000 -0.100000
v -0.000700 0.106000 0.100000
v 0.128800 0.341000 -0.100000
v 0.128800 0.341000 0.100000
vt 0.500000 0.000000
vt 0.750000 0.000000
vt 0.625000 0.000000
vt 0.875000 0.000000
vt 0.000000 0.000000
vt 1.000000 0.000000
vt 0.125000 0.000000
vt 0.375000 0.000000
vt 0.250000 0.000000
vt 0.750000 0.000000
vt 0.500000 0.000000
vt 0.625000 0.000000
vt 0.875000 0.000000
vt 0.000000 0.000000
vt 1.000000 0.000000
vt 0.125000 0.000000
vt 0.375000 0.000000
vt 0.250000 0.000000
vt 0.111111 1.000000
vt 0.000000 0.000000
vt 0.000000 1.000000
vt 0.222222 1.000000
vt 0.111111 0.000000
vt 0.333333 1.000000
vt 0.222222 0.000000
vt 0.444444 1.000000
vt 0.333333 0.000000
vt 0.555556 1.000000
vt 0.444444 0.000000
vt 0.666667 1.000000
vt 0.555556 0.000000
vt 0.777778 1.000000
vt 0.666667 0.000000
vt 0.888889 1.000000
vt 0.777778 0.000000
vt 1.000000 1.000000
vt 0.888889 0.000000
vt 1.000000 0.000000
vn 0.0000 -0.0000 1.0000
vn 0.0000 0.0000 -1.0000
vn 0.9685 -0.2488 0.0000
vn 0.8608 0.5090 0.0000
vn 0.7071 -0.7071 0.0000
vn -0.7071 -0.7071 0.0000
vn -0.9684 -0.2494 0.0000
vn -0.8611 0.5084 0.0000
vn 0.5106 0.8598 0.0000
vn 0.0023 1.0000 0.0000
vn -0.5086 0.8610 0.0000
usemtl None
s off
f 5/1/1 7/2/1 6/3/1
f 5/1/1 8/4/1 7/2/1
f 8/4/1 1/5/1 9/6/1
f 8/4/1 2/7/1 1/5/1
f 5/1/1 2/7/1 8/4/1
f 4/8/1 2/7/1 5/1/1
f 4/8/1 3/9/1 2/7/1
f 16/10/2 14/11/2 15/12/2
f 17/13/2 14/11/2 16/10/2
f 10/14/2 17/13/2 18/15/2
f 11/16/2 17/13/2 10/14/2
f 11/16/2 14/11/2 17/13/2
f 11/16/2 13/17/2 14/11/2
f 12/18/2 13/17/2 11/16/2
s 1
f 22/19/3 19/20/4 20/21/4
f 24/22/5 21/23/3 22/19/3
f 26/24/6 23/25/5 24/22/5
f 28/26/7 25/27/6 26/24/6
f 30/28/8 27/29/7 28/26/7
f 32/30/9 29/31/8 30/28/8
f 34/32/10 31/33/9 32/30/9
f 36/34/11 33/35/10 34/32/10
f 20/36/4 35/37/11 36/34/11
f 22/19/3 21/23/3 19/20/4
f 24/22/5 23/25/5 21/23/3
f 26/24/6 25/27/6 23/25/5
f 28/26/7 27/29/7 25/27/6
f 30/28/8 29/31/8 27/29/7
f 32/30/9 31/33/9 29/31/8
f 34/32/10 33/35/10 31/33/9
f 36/34/11 35/37/11 33/35/10
f 20/36/4 19/38/4 35/37/11
